<?xml version="1.0" encoding="UTF-8"?>
<svg id="katman_2" data-name="katman 2" xmlns="http://www.w3.org/2000/svg" viewBox="0 0 452.98 421.66">
  <defs>
    <style>
      .cls-1 {
        fill-rule: evenodd;
      }
    </style>
  </defs>
  <g id="Layer_1" data-name="Layer 1">
    <path class="cls-1" d="M261.29,34.89c0-5.72-1.03-10.69-3-15.01-2.06-4.31-4.6-8.07-7.88-10.97-3.28-2.91-6.84-5.16-10.88-6.57-4.03-1.59-8.25-2.34-12.47-2.34s-8.54,.75-12.76,2.34c-4.22,1.41-7.97,3.56-11.35,6.38-3.28,2.91-6,6.47-8.06,10.97-2.16,4.41-3.28,9.47-3.28,15.19,0,9.28,2.34,16.51,6.94,21.85,4.59,5.35,10.22,9,16.6,11.07l-31.51,139.37-43.71-121.64c6.94-2.25,12.66-6.28,16.88-12,4.22-5.91,6.29-12.57,6.29-20.35,0-5.72-1.03-10.88-3.19-15.29-2.06-4.31-4.79-7.97-8.16-11.07-3.56-2.91-7.32-5.06-11.44-6.57-4.22-1.5-8.35-2.16-12.57-2.16s-8.54,.66-12.76,2.16c-4.22,1.5-8.06,3.66-11.35,6.57-3.28,3.1-5.91,6.75-7.97,11.07-2.06,4.41-3.1,9.57-3.1,15.29,0,4.13,.66,8.07,2.06,11.91,1.5,3.84,3.47,7.31,6,10.32,2.53,3.09,5.72,5.63,9.47,7.78,3.66,2.16,7.79,3.47,12.29,4.03l-11.53,125.3L52.43,123.14c5.44-2.91,9.66-7.13,12.76-12.57,3.19-5.44,4.78-11.44,4.78-18.1,0-5.72-1.03-10.79-3.28-15.1-2.06-4.31-4.78-7.97-8.06-10.97-3.28-2.91-7.22-5.06-11.35-6.57-4.22-1.5-8.53-2.16-12.75-2.16s-8.44,.66-12.66,2.16c-4.03,1.5-7.78,3.66-11.07,6.57-3.19,3-5.81,6.66-7.78,10.97-2.06,4.31-3,9.38-3,15.1,0,4.31,.75,8.72,2.25,12.85,1.59,4.13,3.85,7.88,6.75,11.07,3,3.19,6.66,5.72,10.79,7.6,4.22,1.78,9.1,2.81,14.44,2.81h4.69l22.98,151v133.08c26.73,3.66,54.3,6.38,82.81,8.06,28.51,1.88,55.99,2.72,82.35,2.72s54.68-.84,82.72-2.72c28.04-1.69,55.33-4.41,81.88-8.06v-133.08l22.32-151h4.79c5.34,0,10.12-1.03,14.35-2.81,4.22-1.88,7.78-4.41,10.88-7.6,2.91-3.19,5.16-6.94,6.66-11.07,1.59-4.13,2.34-8.53,2.34-12.85,0-5.72-.94-10.79-3-15.1-1.97-4.31-4.6-7.97-7.88-10.97-3.28-2.91-6.94-5.06-11.07-6.57-4.12-1.5-8.35-2.16-12.57-2.16s-8.53,.66-12.75,2.16c-4.22,1.5-8.07,3.66-11.35,6.57-3.28,3-6,6.66-8.16,10.97-2.15,4.31-3.19,9.38-3.19,15.1,0,6.66,1.6,12.66,4.79,18.1,3.09,5.44,7.32,9.66,12.66,12.57l-58.33,89.38-11.63-125.3c4.6-.56,8.72-1.88,12.38-4.03,3.75-2.16,6.94-4.69,9.47-7.78,2.53-3,4.5-6.47,5.91-10.32,1.5-3.85,2.16-7.79,2.16-11.91,0-5.72-1.12-10.88-3.1-15.29-2.06-4.31-4.69-7.97-7.97-11.07-3.28-2.91-7.13-5.06-11.35-6.57-4.22-1.5-8.54-2.16-12.76-2.16s-8.25,.66-12.47,2.16c-4.22,1.5-7.97,3.66-11.54,6.57-3.38,3.1-6.1,6.75-8.16,11.07-2.16,4.41-3.19,9.57-3.19,15.29,0,7.78,2.06,14.44,6.29,20.35,4.22,5.72,9.94,9.75,16.88,12l-43.7,121.64-31.51-139.37c6.38-2.06,12-5.72,16.6-11.07,4.59-5.35,6.85-12.57,6.85-21.85h0Zm-34.23,252.56c11.25,0,23.54,.28,36.95,.66,13.41,.47,26.73,1.12,40.14,1.97,13.22,.84,26.07,1.87,38.36,3.19,12.28,1.32,22.88,2.82,31.7,4.41-9.38,.94-20.54,1.78-33.48,2.53-12.94,.75-26.16,1.32-39.67,1.78-13.6,.47-26.92,.75-40.05,.94-13.13,.19-24.57,.28-34.51,.28s-21.29-.1-33.67-.28c-12.57-.19-25.51-.47-38.83-.94-13.22-.47-26.26-.94-39.01-1.5-12.66-.56-24.29-1.31-34.61-2.25,8.53-1.41,18.85-2.81,30.95-4.13,12.1-1.31,24.67-2.44,38.08-3.47,13.41-1.03,26.82-1.78,40.42-2.35,13.51-.56,25.98-.84,37.23-.84h0Zm-.56-189.54l35.73,159.15c-6.19-.19-12.19-.37-18.29-.47-6.1-.09-11.91-.09-17.44-.09V97.91Zm-89.29,34.14l41.73,125.02c-1.87,0-4.13,0-6.66,.09-2.63,.09-5.16,.19-7.69,.28-2.72,.1-5.16,.19-7.41,.28-2.25,.09-4.13,.19-5.63,.19l-14.35-125.86Zm191.04,126.89c-4.22-.38-8.54-.57-13.13-.66-4.5-.1-9.1-.19-13.97-.38l15.47-125.67,11.63,126.71Zm108.51-172c0,4.22-1.5,7.79-4.41,10.69-3,3.1-6.66,4.5-10.88,4.5s-7.88-1.41-10.79-4.5c-2.9-2.91-4.41-6.47-4.41-10.69s1.5-7.88,4.41-10.79c2.91-2.91,6.57-4.41,10.79-4.41s7.88,1.5,10.88,4.41c2.91,2.91,4.41,6.47,4.41,10.79h0ZM146.78,47.64c0,4.22-1.41,7.78-4.41,10.79-2.91,3-6.57,4.41-10.79,4.41s-7.79-1.41-10.79-4.41c-2.91-3-4.41-6.57-4.41-10.79s1.5-7.88,4.41-10.79c3-2.91,6.56-4.41,10.79-4.41s7.88,1.5,10.79,4.41c3,2.91,4.41,6.56,4.41,10.79h0Zm98.19-18.2c0,4.22-1.41,7.79-4.41,10.69-2.91,2.91-6.57,4.5-10.79,4.5s-7.79-1.59-10.79-4.5c-2.9-2.91-4.41-6.47-4.41-10.69s1.5-7.88,4.41-10.88c3-2.91,6.57-4.41,10.79-4.41s7.88,1.5,10.79,4.41c3,3,4.41,6.57,4.41,10.88h0Zm99.04,18.2c0,4.22-1.5,7.78-4.41,10.79-2.91,3-6.47,4.41-10.79,4.41s-7.78-1.41-10.69-4.41c-3.09-3-4.5-6.57-4.5-10.79s1.41-7.88,4.5-10.79c2.91-2.91,6.47-4.41,10.69-4.41s7.88,1.5,10.79,4.41c2.91,2.91,4.41,6.56,4.41,10.79h0ZM53.64,86.94c0,4.22-1.59,7.79-4.5,10.69-2.91,3.1-6.47,4.5-10.79,4.5s-7.78-1.41-10.69-4.5c-3.1-2.91-4.5-6.47-4.5-10.69s1.41-7.88,4.5-10.79c2.91-2.91,6.47-4.41,10.69-4.41s7.88,1.5,10.79,4.41c2.91,2.91,4.5,6.47,4.5,10.79h0Zm8.82,84.88l53.08,87.97c-2.53,.19-5.63,.28-9.29,.28s-7.22,.09-10.88,.28l-32.92-88.53Zm311.74,89.38c-1.88-.19-4.31-.38-7.5-.47-3.1-.09-6.47-.19-10.22-.38l34.04-88.53-16.32,89.38Zm-147.15,70.24c11.25,0,23.54,.19,36.95,.66,13.41,.47,26.73,1.12,40.14,1.97,13.22,.84,26.07,1.97,38.36,3.19,12.28,1.31,22.88,2.81,31.7,4.41-9.38,.94-20.54,1.78-33.48,2.53-12.94,.66-26.16,1.31-39.67,1.78-13.6,.47-26.92,.75-40.05,.94-13.13,.19-24.57,.28-34.51,.28s-21.29-.09-33.67-.28c-12.57-.19-25.51-.47-38.83-.94-13.22-.47-26.26-1.03-39.01-1.5-12.66-.56-24.29-1.31-34.61-2.25,8.53-1.41,18.85-2.81,30.95-4.12,12.1-1.22,24.67-2.44,38.08-3.47,13.41-1.03,26.82-1.78,40.42-2.35,13.51-.56,25.98-.85,37.23-.85h0Zm0,45.96c11.25,0,23.54,.28,36.95,.75,13.41,.38,26.73,1.03,40.14,1.87,13.22,.85,26.07,1.88,38.36,3.19,12.28,1.22,22.88,2.72,31.7,4.41-9.38,.84-20.54,1.69-33.48,2.44-12.94,.75-26.16,1.41-39.67,1.87-13.6,.47-26.92,.75-40.05,.94-13.13,.19-24.57,.28-34.51,.28s-21.29-.09-33.67-.28c-12.57-.19-25.51-.47-38.83-.94-13.22-.46-26.26-1.03-39.01-1.59-12.66-.56-24.29-1.31-34.61-2.16,8.53-1.5,18.85-2.91,30.95-4.13,12.1-1.31,24.67-2.44,38.08-3.47,13.41-1.03,26.82-1.78,40.42-2.34,13.51-.57,25.98-.84,37.23-.84h0Z"/>
  </g>
</svg>