<?xml version="1.0" encoding="UTF-8"?>
<svg id="katman_2" data-name="katman 2" xmlns="http://www.w3.org/2000/svg" viewBox="0 0 380.68 452.99">
  <defs>
    <style>
      .cls-1 {
        fill-rule: evenodd;
      }
    </style>
  </defs>
  <g id="Layer_1" data-name="Layer 1">
    <path class="cls-1" d="M209.99,162.62c0,10.97-.75,21.2-2.16,30.57-1.41,9.47-3.19,19.13-5.06,29.17-2.06,9.94-4.03,20.63-6.1,31.98-2.16,11.44-3.84,24.57-5.25,39.48h-1.13V80.84c4.31,7.22,7.78,14.54,10.41,21.76,2.63,7.32,4.6,14.44,5.91,21.48,1.41,6.94,2.35,13.79,2.72,20.35,.37,6.47,.66,12.57,.66,18.2h0ZM198.73,0h-16.79V15.94h-15.38v15.29h15.38v27.85c-9.1,13.41-16.6,28.23-22.13,44.46-5.54,16.22-8.35,33.95-8.35,53.36-3.75-6.47-8.25-12.57-13.41-18.29-5.25-5.82-11.16-10.88-17.63-15.29-6.38-4.31-13.51-7.88-21.2-10.32-7.78-2.63-16.04-3.75-24.85-3.75-10.79,0-20.73,1.78-29.82,5.53-9,3.66-16.98,8.82-23.63,15.38-6.57,6.66-11.73,14.63-15.38,23.63-3.75,9.1-5.53,19.13-5.53,30.11,0,12,1.69,23.73,5.34,35.08,3.56,11.25,8.54,21.76,14.82,31.32,6.28,9.66,13.88,18.29,22.6,25.79,8.82,7.6,18.38,13.6,28.6,18.01-2.81,.19-6.1,.47-9.94,.75-3.75,.28-7.6,.56-11.44,.85-3.94,.19-7.69,.47-11.44,.75-3.75,.28-7.31,.56-10.32,.75v144.52c26.63,3.75,53.64,6.57,81.12,8.44,27.29,1.97,54.58,2.81,81.5,2.81s53.46-.85,79.53-2.81c26.07-1.88,53.36-4.69,82.06-8.44v-144.52c-3.09-.19-6.56-.47-10.31-.75-3.85-.28-7.6-.56-11.44-.75-3.84-.28-7.6-.56-11.35-.85-3.66-.28-7.03-.56-10.13-.75,10.22-4.41,19.79-10.41,28.7-18.01,8.72-7.5,16.23-16.13,22.6-25.79,6.28-9.57,11.25-20.07,14.82-31.32,3.56-11.35,5.35-23.07,5.35-35.08,0-10.97-1.88-21.01-5.54-30.11-3.66-9-8.82-16.97-15.47-23.63-6.66-6.57-14.54-11.72-23.63-15.38-9-3.75-18.95-5.53-29.73-5.53-8.81,0-17.16,1.13-24.85,3.75-7.78,2.44-14.82,6-21.29,10.32-6.57,4.41-12.29,9.47-17.54,15.29-5.16,5.72-9.66,11.82-13.51,18.29,0-19.41-2.72-37.14-8.35-53.36-5.63-16.23-12.94-31.04-22.04-44.46V31.23h15.29V15.94h-15.29V0Zm-7.88,322.25c10.98,0,22.98,.28,36.02,.66,13.03,.47,26.07,1.03,39.11,1.87,12.94,.85,25.51,1.87,37.42,3.19,12,1.12,22.32,2.63,30.85,4.22-9.1,.94-19.97,1.69-32.54,2.44-12.66,.75-25.51,1.31-38.64,1.78-13.32,.46-26.26,.75-39.11,.94-12.76,.19-24.01,.28-33.67,.28s-20.73-.09-32.82-.28c-12.29-.19-24.85-.47-37.8-.94-12.94-.47-25.6-.94-38.08-1.5-12.28-.56-23.63-1.31-33.67-2.15,8.25-1.41,18.29-2.82,30.11-4.13,11.82-1.12,24.1-2.25,37.14-3.28,13.13-1.03,26.16-1.78,39.39-2.25,13.22-.56,25.32-.85,36.29-.85h0Zm0,42.86c10.98,0,22.98,.19,36.02,.66,13.03,.47,26.07,1.12,39.11,1.97,12.94,.75,25.51,1.78,37.42,3,12,1.31,22.32,2.72,30.85,4.31-9.1,.94-19.97,1.78-32.54,2.53-12.66,.56-25.51,1.22-38.64,1.69-13.32,.47-26.26,.75-39.11,.94-12.76,.19-24.01,.28-33.67,.28s-20.73-.09-32.82-.28c-12.29-.19-24.85-.47-37.8-.94-12.94-.47-25.6-1.03-38.08-1.41-12.28-.56-23.63-1.31-33.67-2.25,8.25-1.41,18.29-2.72,30.11-4.03,11.82-1.22,24.1-2.44,37.14-3.37,13.13-.94,26.16-1.69,39.39-2.25,13.22-.57,25.32-.84,36.29-.84h0Zm0,44.74c10.98,0,22.98,.28,36.02,.75,13.03,.38,26.07,1.03,39.11,1.87,12.94,.75,25.51,1.78,37.42,3.1,12,1.22,22.32,2.62,30.85,4.31-9.1,.84-19.97,1.69-32.54,2.44-12.66,.66-25.51,1.22-38.64,1.69-13.32,.47-26.26,.75-39.11,.94-12.76,.19-24.01,.28-33.67,.28s-20.73-.1-32.82-.28c-12.29-.19-24.85-.46-37.8-.94-12.94-.47-25.6-.94-38.08-1.5-12.28-.47-23.63-1.22-33.67-2.06,8.25-1.5,18.29-2.82,30.11-4.04,11.82-1.31,24.1-2.44,37.14-3.47,13.13-.94,26.16-1.69,39.39-2.25,13.22-.56,25.32-.84,36.29-.84h0ZM20.45,182.79c0-7.6,1.03-14.72,3.38-21.57,2.16-6.75,5.62-12.76,10.13-17.73,4.5-5.06,10.03-9,16.6-12.1,6.75-2.91,14.44-4.41,22.98-4.41,10.69,0,20.35,2.44,28.98,7.31,8.72,4.88,16.6,11.35,23.35,19.51,6.85,8.16,12.85,17.63,18.01,28.51,5.06,10.79,9.38,22.13,12.85,34.04,3.47,12.01,6.38,24.2,8.35,36.77,2.06,12.38,3.47,24.38,4.03,35.64-4.41,1.22-9.38,2.25-14.72,2.91-5.53,.56-11.72,.94-18.57,.94-14.35,0-28.42-2.63-42.3-7.79-13.79-5.06-26.17-12.38-36.95-21.85-10.79-9.57-19.51-21.1-26.07-34.51-6.75-13.6-10.04-28.79-10.04-45.67h0Zm339.79,0c0,16.88-3.28,32.07-10.04,45.67-6.66,13.41-15.38,24.94-26.17,34.51-10.79,9.47-23.07,16.79-36.86,21.85-13.88,5.16-28.04,7.79-42.39,7.79-6.75,0-12.94-.38-18.47-.94-5.44-.66-10.41-1.69-14.73-2.91,.75-11.26,2.16-23.26,4.03-35.64,2.07-12.57,4.79-24.76,8.35-36.77,3.47-11.91,7.78-23.26,12.85-34.04,5.16-10.88,11.16-20.35,17.92-28.51,6.85-8.16,14.63-14.63,23.44-19.51,8.63-4.88,18.29-7.31,28.98-7.31,8.53,0,16.13,1.5,22.88,4.41,6.66,3.1,12.19,7.03,16.69,12.1,4.5,4.97,7.88,10.97,10.13,17.73,2.16,6.85,3.38,13.97,3.38,21.57h0Zm-322.53,0c0,14.25,2.81,27.01,8.44,38.45,5.72,11.44,13.13,21.1,22.32,29.07,9.1,8.06,19.6,14.16,31.42,18.57,11.73,4.32,23.73,6.38,35.92,6.38h7.88c2.35,0,4.69-.19,6.94-.56-1.03-9.85-2.53-19.88-4.5-30.2-1.97-10.22-4.5-20.16-7.6-29.92-3.09-9.66-6.66-18.76-10.88-27.29-4.22-8.53-9-16.04-14.44-22.42-5.34-6.38-11.35-11.35-18.01-15.01-6.47-3.75-13.79-5.53-21.66-5.53-5.91,0-11.07,.94-15.47,3-4.41,2.16-8.07,4.88-11.26,8.35-3,3.56-5.34,7.69-6.75,12.28-1.59,4.69-2.34,9.66-2.34,14.82h0Zm305.18,0c0-5.16-.66-10.13-2.25-14.82-1.5-4.59-3.75-8.72-6.85-12.28-3.09-3.47-6.75-6.19-11.16-8.35-4.5-2.06-9.57-3-15.47-3-7.97,0-15.2,1.78-21.76,5.53-6.66,3.66-12.57,8.63-17.91,15.01-5.44,6.38-10.22,13.88-14.44,22.42-4.31,8.53-7.88,17.63-10.97,27.29-3.09,9.75-5.53,19.69-7.6,29.92-1.88,10.32-3.47,20.35-4.5,30.2,2.34,.37,4.59,.56,7.03,.56h7.79c12.28,0,24.2-2.06,36.01-6.38,11.82-4.41,22.32-10.5,31.42-18.57,9.19-7.97,16.51-17.63,22.23-29.07,5.63-11.44,8.44-24.2,8.44-38.45h0Z"/>
  </g>
</svg>