<?xml version="1.0" encoding="UTF-8"?>
<svg id="katman_2" data-name="katman 2" xmlns="http://www.w3.org/2000/svg" viewBox="0 0 299.27 453.08">
  <defs>
    <style>
      .cls-1 {
        fill-rule: evenodd;
      }
    </style>
  </defs>
  <g id="Layer_1" data-name="Layer 1">
    <path class="cls-1" d="M186.91,37.04c0-5.25-.94-10.13-2.81-14.54-1.97-4.59-4.6-8.44-7.88-11.72-3.28-3.38-7.22-6-11.72-7.88-4.59-1.87-9.47-2.91-14.82-2.91s-10.32,1.03-14.91,2.91c-4.5,1.88-8.35,4.5-11.73,7.88-3.28,3.28-5.91,7.13-7.88,11.72-1.88,4.41-2.81,9.29-2.81,14.54,0,6.85,1.78,12.94,5.44,18.29-10.13,7.32-19.51,15.01-28.32,23.07-8.82,8.07-16.41,16.79-22.89,26.07-6.47,9.38-11.63,19.6-15.29,30.48-3.75,11.07-5.63,23.07-5.63,36.01,0,10.32,1.03,19.88,3.19,28.61,2.16,8.81,4.78,16.88,8.16,24.19,3.28,7.41,7.13,14.07,11.35,19.98,4.13,5.91,8.35,11.26,12.38,16.04l-17.54,63.12c7.6,4.97,16.69,8.91,27.29,11.91,10.6,3,21.95,5.16,33.95,6.38-6.66,2.91-13.78,4.88-21.48,6.19-7.6,1.31-15.66,2.25-23.82,2.81-8.26,.66-16.6,1.22-25.04,1.78-8.53,.47-16.79,1.13-24.85,2.06L0,381.62c.56,8.35,2.25,16.32,5.07,23.54,2.81,7.41,6.66,14.26,11.35,20.35,4.78,6.19,10.41,11.63,16.79,16.32,6.38,4.59,13.31,8.44,21.01,11.25l31.79-33.95c-2.81-1.32-6.1-2.72-9.66-4.5-3.56-1.78-6.94-3.84-10.22-6.19-3.38-2.34-6.38-5.16-8.91-8.35-2.62-3.19-4.41-6.85-5.34-10.88,11.35-.66,21.57-1.78,30.57-3.28,9-1.69,17.45-4.13,25.14-7.6,7.78-3.38,15-7.88,21.66-13.6,6.66-5.63,13.32-13.13,19.88-22.32h1.03c6.66,9.19,13.32,16.69,19.88,22.32,6.66,5.72,13.88,10.22,21.66,13.6,7.69,3.47,16.13,5.91,25.13,7.6,9,1.5,19.22,2.63,30.67,3.28-1.03,4.03-2.81,7.69-5.35,10.88-2.63,3.19-5.63,6-8.91,8.35-3.38,2.35-6.75,4.41-10.32,6.19-3.56,1.78-6.85,3.19-9.66,4.5l31.89,33.95c7.5-2.81,14.54-6.66,20.91-11.25,6.47-4.69,12-10.13,16.79-16.32,4.69-6.1,8.53-12.94,11.35-20.35,2.81-7.22,4.59-15.19,5.06-23.54l-29.26-27.57c-8.06-.94-16.32-1.6-24.85-2.06-8.35-.56-16.69-1.12-25.04-1.78-8.16-.56-16.13-1.5-23.82-2.81-7.69-1.31-14.82-3.28-21.57-6.19,12.1-1.22,23.45-3.38,34.04-6.38,10.6-3,19.69-6.94,27.29-11.91l-17.54-63.12c4.03-4.78,8.26-10.13,12.38-16.04,4.22-5.91,8.06-12.57,11.35-19.98,3.38-7.32,6-15.38,8.25-24.19,2.06-8.72,3.1-18.29,3.1-28.61,0-12.94-1.87-24.94-5.53-36.01-3.75-10.88-8.91-21.1-15.38-30.48-6.47-9.28-14.07-18-22.79-26.07-8.91-8.06-18.29-15.76-28.42-23.07,3.56-5.34,5.44-11.44,5.44-18.29h0Zm-45.39,85.91v-41.27h16.23v41.27h38.92v15.47h-38.92v91.44h-16.23v-91.44h-38.92v-15.47h38.92Zm86.28,20.25v-4.68c0-1.78-.19-3.57-.56-5.35h1.22c2.25,6.1,3.84,12.19,4.88,18.38,1.03,6.38,1.59,12.66,1.59,19.13,0,16.04-3,30.86-8.91,44.45-5.91,13.6-13.97,25.6-24.1,35.92l-23.54-4.32c15.85-11.63,28.04-25.7,36.58-42.39,8.54-16.69,12.85-37.14,12.85-61.15h0Zm-14.82,169.29c-4.13-.75-8.54-1.5-13.51-2.16-4.88-.66-9.66-1.12-14.26-1.41l-5.16-41.73c4.13,.66,8.25,1.31,12.29,2.25,4.13,.84,7.78,1.97,10.97,3.19l9.66,39.86Zm-39.39,38.92c5.07,3.19,11.73,5.54,19.98,7.13,8.26,1.6,16.79,2.81,25.61,3.56,8.91,.75,17.44,1.41,25.7,1.78,8.16,.37,14.91,1.03,20.16,1.78l12.57,11.63c-2.16,.19-4.5,.28-6.85,.28h-7.13c-7.69,0-15.57-.28-23.82-.85-8.35-.56-16.6-1.78-24.58-3.56-8.16-1.87-15.85-4.41-23.16-7.6-7.13-3.28-13.69-7.6-19.42-13.13l.94-1.03Zm-46.98,1.03c-5.63,5.53-12.19,9.85-19.41,13.13-7.31,3.19-15.01,5.72-23.07,7.6-8.06,1.78-16.23,3-24.57,3.56-8.25,.56-16.32,.85-23.82,.85h-7.13c-2.34,0-4.78-.09-6.94-.28l12.57-11.63c5.25-.75,12-1.41,20.16-1.78,8.25-.38,16.79-1.03,25.7-1.78,8.81-.75,17.35-1.97,25.6-3.56,8.26-1.59,14.91-3.94,19.98-7.13l.94,1.03ZM158.87,42.48c1.78-2.16,3.1-4.88,3.94-7.88,.85-3.09,1.31-6.28,1.31-9.47,0-5.34-1.22-9.85-3.56-13.51,4.41,2.25,7.97,5.63,10.69,9.94,2.72,4.5,4.03,9.19,4.03,14.07,0,2.53-.37,4.97-1.12,7.31-.84,2.35-2.16,4.69-3.84,6.66l-11.44-7.13Z"/>
  </g>
</svg>