<?xml version="1.0" encoding="UTF-8"?>
<svg id="katman_2" data-name="katman 2" xmlns="http://www.w3.org/2000/svg" viewBox="0 0 317.37 453.08">
  <defs>
    <style>
      .cls-1 {
        fill-rule: evenodd;
      }
    </style>
  </defs>
  <g id="Layer_1" data-name="Layer 1">
    <path class="cls-1" d="M317.37,453.08v-11.25c0-10.5-1.12-19.88-3.38-27.95-2.35-8.25-5.82-15-10.69-20.63-4.97-5.63-11.35-9.94-19.04-12.76-7.79-2.91-17.26-4.41-28.23-4.41h-2.25c1.12-1.97,1.59-4.59,1.59-7.41,0-3.75-.66-7.41-1.97-10.78-1.41-3.38-3.28-6.47-6-9.01-2.53-2.72-5.91-4.78-10.04-6.37-4.22-1.69-9.09-2.53-14.72-2.53h-1.78c-5.44-9.66-9.66-18.94-13.04-28.32-3.19-9.38-5.63-18.48-7.41-27.39-1.78-8.82-3-17.44-3.66-25.88-.57-8.54-.85-16.79-.85-24.67v-16.23c7.5-1.69,13.22-4.97,17.16-10.04,3.94-5.16,5.82-10.97,5.82-17.72,0-1.22-.09-2.53-.28-4.03s-.47-2.72-.84-4.03h1.78c14.54,0,25.42-3.57,32.73-10.97,7.22-7.22,10.88-16.32,10.88-27.29s-3.94-19.51-11.82-26.45c-7.88-7.13-18.85-11.07-32.73-11.91,3.19-5.06,5.62-10.69,7.5-17.16,1.88-6.38,2.81-13.32,2.81-20.54,0-9.94-1.78-19.04-5.35-27.29-3.47-8.25-8.35-15.19-14.54-21.2-6.28-5.81-13.69-10.5-22.32-13.79-8.63-3.28-18.01-5.06-28.23-5.06s-19.23,1.78-27.85,5.06c-8.63,3.28-16.04,7.97-22.32,13.79-6.19,6-11.07,12.94-14.54,21.2-3.66,8.26-5.34,17.35-5.34,27.29,0,7.22,.94,14.16,2.72,20.54,1.97,6.47,4.41,12.1,7.51,17.16-13.88,.84-24.76,4.78-32.64,11.91-7.88,6.94-11.82,15.85-11.82,26.45s3.56,20.07,10.88,27.29c7.22,7.41,18.1,10.97,32.73,10.97h1.78c-.47,1.31-.75,2.53-.94,4.03-.1,1.5-.19,2.81-.19,4.03,0,6.75,1.87,12.57,5.81,17.72,3.94,5.07,9.66,8.35,17.07,10.04v16.23c0,7.88-.28,16.13-.84,24.67-.56,8.44-1.88,17.07-3.56,25.88-1.78,8.91-4.22,18.01-7.41,27.39-3.38,9.38-7.6,18.66-13.04,28.32h-1.88c-5.53,0-10.41,.84-14.63,2.53-4.13,1.59-7.5,3.66-10.04,6.37-2.72,2.53-4.59,5.63-6,9.01-1.41,3.38-1.97,7.03-1.97,10.78,0,2.81,.47,5.44,1.41,7.41h-2.07c-22.04,0-37.8,5.72-47.27,17.16-9.47,11.44-14.07,27.57-14.07,48.58v11.25H317.37Zm-61.05-55.8c9.38,0,16.88,1.6,22.23,4.69,5.54,3.19,9.47,7.5,11.72,13.03H27.1c2.25-5.53,6-9.85,11.44-13.03,5.44-3.1,12.85-4.69,22.42-4.69h195.36ZM77.47,143.4c0-5.44,1.69-9.66,4.97-12.66,3.38-3,8.35-4.59,15-4.59h122.48c6.66,0,11.54,1.59,14.91,4.59,3.38,3,5.07,7.22,5.07,12.66H77.47ZM182.23,63.96c0-5.44-.94-10.5-2.81-15.29-1.88-4.78-4.41-9.1-7.69-13.04-3.19-3.85-6.94-7.03-11.25-9.57-4.41-2.62-9.19-4.31-14.35-5.16,1.31-.66,3.28-1.12,5.35-1.41,2.25-.28,4.41-.47,6.38-.47,16.13,0,28.32,4.5,36.86,13.41,8.53,9,12.76,20.54,12.76,34.89,0,7.69-1.5,14.82-4.41,21.29-2.81,6.57-6.94,12-12.1,16.41h-37.14c8.35-3.09,15.1-8.35,20.45-15.76,5.35-7.32,7.97-15.85,7.97-25.32h0Zm-8.16,169.38c0,19.79,1.88,38.82,5.63,57.21,3.75,18.47,8.91,34.89,15.66,49.42h-28.42v-121.83h7.13v15.2Zm48.02,127.73c6.38,0,9.57,2.72,9.57,7.88H85.53c0-5.16,3.38-7.88,9.75-7.88h126.8ZM122.02,189.45c0-5.25,3.28-7.78,10.04-7.78h53.27c6.57,0,10.04,2.53,10.04,7.78H122.02Z"/>
  </g>
</svg>