<?xml version="1.0" encoding="UTF-8"?>
<svg id="katman_2" data-name="katman 2" xmlns="http://www.w3.org/2000/svg" viewBox="0 0 375.99 453.08">
  <defs>
    <style>
      .cls-1 {
        fill-rule: evenodd;
      }
    </style>
  </defs>
  <g id="Layer_1" data-name="Layer 1">
    <path class="cls-1" d="M27.48,222.83c.47,2.72,1.32,5.44,2.63,7.79,1.5,2.44,3,4.22,4.5,5.72,5.07-1.87,9.85-4.69,14.44-8.63,4.5-3.84,9.29-7.22,14.26-9.94l-.38-1.78-35.45,6.84Zm101.2-96.69c3.56,0,7.5-.38,11.63-.94,4.22-.66,8.35-1.6,12.56-3,4.13-1.4,8.16-3.09,11.82-5.06,3.66-2.06,6.85-4.41,9.38-7.13-3.56,0-7.78-.38-12.66-1.12-4.88-.75-9.57-1.03-14.16-1.03-1.78,0-3.84,.09-6.28,.28-2.35,.28-4.6,.75-6.57,1.6-2.06,.66-3.66,1.87-5.06,3.56-1.41,1.5-2.16,3.66-2.16,6.19,0,1.88,.47,3.94,1.5,6.66h0Zm-39.67,326.94c-2.16-5.62-4.22-12.19-6-20.07-1.78-7.78-2.72-17.72-2.72-30.1,0-15.19,2.91-28.79,8.35-40.99,5.63-12.1,12.57-23.16,21.01-33.2,8.35-10.04,17.44-19.41,27.29-28.14,9.84-8.63,18.94-17.07,27.38-25.32,8.35-8.25,15.29-16.5,20.82-25.04,5.54-8.35,8.44-17.25,8.44-27.1-6.28,6.19-14.26,11.54-24.1,16.04-9.85,4.5-22.79,7.03-38.92,7.88-6,4.32-12.1,7.97-18.29,11.07-6.19,3-12.66,5.53-19.6,7.79-6.29,6.94-12.66,12.47-19.32,16.79-6.66,4.31-13.5,6.37-20.44,6.37-5.82,0-11.16-.94-16.13-3.19-4.97-2.16-9.57-5.25-13.69-9-4.03-3.75-7.5-8.16-10.32-13.13-2.91-4.97-5.06-10.22-6.47-15.85-2.44-3.56-4.03-7.51-4.88-11.82-.94-4.22-1.41-8.35-1.41-12.29,0-3.28,1.03-6.56,3-10.03,1.97-3.56,4.41-6.75,7.13-10.04,2.81-3.19,5.72-5.91,8.72-8.35,2.91-2.35,5.63-4.22,7.69-5.35,6.75-9,12.85-16.7,18.1-23.35,5.25-6.48,10.5-12.57,15.57-18.29,4.97-5.72,10.32-11.35,15.75-16.97,5.54-5.44,12.1-11.82,19.6-18.76-.37-1.6-.56-3-.56-4.5,0-6.19,1.31-11.54,3.84-16.32,2.53-4.88,5.81-9,9.66-12.47,3.85-3.47,8.16-6.29,12.85-8.44,4.69-2.25,9.19-3.94,13.32-5.16,0-4.12-.09-8.16-.28-11.82-.75-13.22,5.06-11.63,5.72-19.69,.56-7.69,.75-10.22-2.16-20.16,3,1.5,6.38,3.38,10.13,5.81,3.84,2.63,7.6,5.44,11.53,8.91,3.85,3.38,7.6,7.22,11.16,11.63,3.56,4.41,6.85,9.09,9.57,14.07l3-.66c1.59-7.6,4.03-16.13,9.75-22.23,11.16-11.91,7.78-11.25,8.44-31.61,4.41,4.03,8.82,8.63,13.32,13.69,4.41,5.07,8.72,10.69,12.85,16.79,4.04,6.29,7.88,13.04,11.44,20.54,3.56,7.41,6.56,15.47,9,24.01,3.19,4.03,6.66,8.06,10.32,12.29,3.66,4.13,7.69,8.63,12.1,13.41,4.41,4.78,9.09,9.94,14.16,15.47,5.06,5.62,10.6,11.82,16.51,18.85,8.06,9.28,16.41,21.29,25.32,36.01,8.81,14.54,16.88,30.67,24.1,48.3,7.22,17.63,13.41,36.11,18.1,55.43,4.78,19.32,7.22,38.26,7.22,56.74,0,12.1-.19,22.79-.66,32.08-.38,9.28-1.03,18.29-1.88,27.2-.94,8.91-2.06,18.1-3.47,27.95-1.31,9.75-3.09,21.2-5.16,34.33H89ZM263.07,135.43c16.69,27.95,29.26,55.71,37.7,83,8.35,27.48,12.47,56.18,12.47,86.28,0,9-.28,17.91-.75,26.45-.56,8.63-1.31,17.26-2.53,25.89-1.12,8.72-2.72,17.44-4.59,26.45-1.97,8.91-4.31,18.29-7.03,28.04h34.33c2.72-12.57,4.78-24.67,6-36.48,1.13-12,1.69-23.35,1.69-34.61,0-15.85-1.03-30.95-3.19-45.3-2.25-14.44-5.16-27.85-8.82-40.42-3.75-12.48-7.97-24.1-12.57-34.8-4.6-10.88-9.38-20.72-14.26-29.63-11.26-20.73-24.1-39.01-38.45-54.86h0Z"/>
  </g>
</svg>