<?xml version="1.0" encoding="UTF-8"?>
<svg id="katman_2" data-name="katman 2" xmlns="http://www.w3.org/2000/svg" viewBox="0 0 453.08 421.57">
  <defs>
    <style>
      .cls-1 {
        fill-rule: evenodd;
      }
    </style>
  </defs>
  <g id="Layer_1" data-name="Layer 1">
    <path class="cls-1" d="M434.88,92.38c0-5.53-1.78-9.57-5.16-12.38-3.38-2.62-7.22-3.94-11.54-3.94s-8.06,1.31-11.53,4.22c-3.56,2.72-5.25,6.75-5.25,12.1s1.69,9.47,5.25,12.29c3.47,2.81,7.31,4.32,11.53,4.32s8.16-1.41,11.54-4.22c3.38-2.72,5.16-6.85,5.16-12.38h0Zm-416.6,0c0,5.53,1.69,9.66,5.07,12.38,3.38,2.81,7.31,4.22,11.53,4.22s8.06-1.5,11.63-4.32c3.47-2.81,5.16-6.94,5.16-12.29s-1.69-9.38-5.16-12.1c-3.56-2.91-7.41-4.22-11.63-4.22s-8.16,1.31-11.53,3.94c-3.38,2.81-5.07,6.85-5.07,12.38h0ZM341.94,53.18c0-5.81-1.69-10.04-5.16-12.75-3.47-2.81-7.31-4.22-11.72-4.22s-8.07,1.41-11.35,4.31c-3.28,2.91-4.97,7.03-4.97,12.66,0,5.06,1.69,9.1,4.97,11.91,3.28,2.91,7.03,4.41,11.35,4.41s8.25-1.41,11.72-4.22c3.47-2.81,5.16-6.85,5.16-12.1h0Zm-230.81,0c0,5.25,1.69,9.28,5.25,12.1,3.38,2.81,7.22,4.22,11.73,4.22,4.22,0,7.97-1.5,11.25-4.41,3.38-2.81,5.06-6.85,5.06-11.91,0-5.63-1.69-9.75-5.06-12.66-3.28-2.91-7.03-4.31-11.25-4.31-4.5,0-8.35,1.41-11.73,4.22-3.56,2.72-5.25,6.94-5.25,12.75h0Zm98.76-18.38c0,5.44,1.69,9.57,4.78,12.47,3.1,2.91,6.85,4.41,11.35,4.41,4.78,0,8.81-1.41,12.1-4.22,3.38-2.91,5.06-7.03,5.06-12.66,0-5.25-1.69-9.38-5.06-12.47-3.28-2.91-7.31-4.31-12.1-4.31s-8.44,1.41-11.44,4.31c-3.1,3.1-4.69,7.22-4.69,12.47h0Zm180.63,136.93l-52.99,87.97c2.35,0,5.25,.09,8.82,.19,3.47,.09,7.03,.19,10.5,.38,3.47,.19,6.75,.28,9.94,.38,3.19,.09,5.62,.28,7.5,.56l16.23-89.47ZM78.88,261.19c1.78-.28,4.22-.47,7.5-.56,3.1-.1,6.38-.19,9.85-.38,3.56-.19,7.03-.28,10.41-.38,3.37-.09,6.37-.19,9-.19l-53.08-87.97,16.32,89.47Zm236.99-129.24l-41.73,125.02c9.1,.38,18.19,.66,27.48,.94,9.38,.28,18.19,.56,26.73,.94l-12.47-126.89Zm-191.13,126.89c8.53-.38,17.44-.66,26.73-.94,9.29-.28,18.48-.56,27.48-.94l-42.58-124.83-11.63,126.7Zm101.29-2.44c5.91,0,11.82,0,18.01,.09,6,.09,12.1,.28,18.19,.47l-35.64-159.06-35.73,159.06c6.09-.19,12.1-.37,18.01-.47,5.91-.09,11.63-.09,17.16-.09h0Zm0,144.99c11.16,0,23.26-.19,36.2-.66,12.94-.47,25.88-1.22,38.92-2.06,12.94-.84,25.7-1.78,37.98-2.81,12.38-1.13,23.45-2.44,33.48-3.94v-20.73c-10.5,.56-21.94,1.03-34.42,1.41-12.48,.38-25.04,.75-37.89,1.03-12.85,.28-25.6,.47-38.36,.56-12.76,.09-24.76,.09-35.92,.09s-22.89,0-35.55-.09c-12.66-.09-25.32-.28-38.08-.56-12.75-.28-25.32-.66-37.61-1.03-12.29-.38-23.82-.84-34.33-1.41v20.73c10.04,1.5,21.1,2.81,33.39,3.94,12.19,1.03,24.86,1.97,37.89,2.81,12.94,.84,25.79,1.59,38.55,2.06,12.76,.47,24.67,.66,35.73,.66h0Zm0-47.64c11.16,0,23.16,0,35.92-.09,12.76-.1,25.51-.19,38.36-.28,12.85-.09,25.41-.28,37.89-.56,12.47-.28,23.91-.56,34.42-.94v-22.98c-10.5-.37-21.94-.75-34.42-1.12-12.48-.38-25.04-.66-37.89-.85-12.85-.19-25.6-.28-38.36-.37-12.76-.09-24.76-.19-35.92-.19s-22.89,.09-35.55,.19c-12.66,.09-25.42,.19-38.27,.37-12.75,.19-25.32,.47-37.51,.85-12.29,.37-23.73,.75-34.23,1.12v22.98c10.5,.38,21.95,.66,34.23,.94,12.19,.28,24.76,.47,37.51,.56,12.85,.09,25.61,.19,38.27,.28,12.66,.09,24.48,.09,35.55,.09h0Zm-145.56-43.42c10.5-.56,21.95-.94,34.23-1.31,12.19-.38,24.67-.66,37.42-.84,12.75-.19,25.42-.38,38.07-.47,12.66-.09,24.57-.09,35.83-.09s22.88,0,35.64,.09c12.75,.09,25.6,.28,38.45,.47,12.94,.19,25.6,.47,38.08,.84,12.47,.38,23.91,.75,34.42,1.31v-32.36c-11.25-.47-23.16-1.03-35.64-1.59-12.57-.56-25.23-.94-37.89-1.22-12.75-.38-25.32-.66-37.79-.85-12.48-.19-24.29-.28-35.26-.28s-22.51,.09-34.7,.28c-12.29,.19-24.85,.47-37.52,.85-12.76,.28-25.32,.66-37.7,1.22-12.47,.56-24.38,1.13-35.64,1.59v32.36ZM191.7,34.79c0-5.63,1.03-10.69,3-15,2.06-4.31,4.69-7.97,7.97-10.97,3.19-2.91,6.75-5.16,10.88-6.57,4.03-1.5,8.16-2.25,12.48-2.25s8.44,.75,12.66,2.25c4.31,1.41,8.07,3.56,11.35,6.38,3.38,3,6.1,6.56,8.16,10.97,2.16,4.41,3.19,9.57,3.19,15.19,0,9.29-2.25,16.51-6.85,21.95-4.69,5.25-10.22,8.91-16.69,11.07l31.61,139.37,43.7-121.73c-7.03-2.16-12.66-6.28-16.88-12-4.32-5.82-6.38-12.57-6.38-20.26,0-5.81,1.03-10.88,3.19-15.38,2.15-4.31,4.88-7.97,8.25-10.97,3.47-3,7.31-5.16,11.44-6.66,4.13-1.5,8.25-2.16,12.57-2.16s8.44,.66,12.76,2.16c4.22,1.5,7.97,3.66,11.25,6.66,3.38,3,6,6.66,8.06,10.97,1.97,4.5,3,9.57,3,15.38,0,4.03-.66,7.97-2.06,11.82-1.41,3.94-3.38,7.31-5.91,10.32-2.63,3.09-5.82,5.72-9.47,7.88-3.66,2.06-7.88,3.38-12.38,3.94l11.63,125.3,58.33-89.28c-5.34-3-9.66-7.22-12.75-12.57-3.1-5.53-4.69-11.54-4.69-18.2,0-5.72,1.03-10.69,3.19-15.1,2.06-4.31,4.79-7.88,8.16-10.88,3.28-3,7.13-5.16,11.25-6.66,4.31-1.5,8.53-2.16,12.76-2.16s8.53,.66,12.66,2.16c4.13,1.5,7.88,3.66,11.07,6.66,3.19,3,5.91,6.56,7.88,10.88,2.06,4.41,3,9.38,3,15.1,0,4.41-.75,8.72-2.25,12.85-1.6,4.22-3.94,7.88-6.85,11.07-2.91,3.19-6.57,5.81-10.79,7.69-4.22,1.78-9,2.72-14.44,2.72h-4.69l-22.98,151.09v132.99c-26.64,3.75-54.21,6.47-82.81,8.16-28.51,1.78-55.99,2.62-82.25,2.62s-54.68-.84-82.72-2.62c-28.04-1.69-55.33-4.41-81.87-8.16v-132.99L39.01,126.7h-4.69c-5.44,0-10.22-.94-14.35-2.72-4.31-1.88-7.88-4.5-10.88-7.69-2.91-3.19-5.16-6.85-6.66-11.07-1.69-4.13-2.44-8.44-2.44-12.85,0-5.72,.94-10.69,3.1-15.1,1.97-4.31,4.59-7.88,7.78-10.88,3.28-3,7.03-5.16,11.16-6.66,4.04-1.5,8.35-2.16,12.57-2.16s8.44,.66,12.76,2.16c4.22,1.5,7.97,3.66,11.35,6.66,3.28,3,6,6.56,8.06,10.88,2.16,4.41,3.19,9.38,3.19,15.1,0,6.66-1.59,12.66-4.69,18.2-3.1,5.35-7.41,9.57-12.76,12.57l58.34,89.28,11.63-125.3c-4.5-.56-8.63-1.88-12.38-3.94-3.66-2.16-6.85-4.78-9.38-7.88-2.63-3-4.6-6.38-6-10.32-1.41-3.85-2.06-7.79-2.06-11.82,0-5.81,1.03-10.88,3-15.38,2.06-4.31,4.79-7.97,8.07-10.97s7.03-5.16,11.35-6.66c4.22-1.5,8.44-2.16,12.76-2.16,4.03,0,8.16,.66,12.38,2.16,4.31,1.5,8.06,3.66,11.53,6.66,3.38,3,6.19,6.66,8.25,10.97,2.16,4.5,3.19,9.57,3.19,15.38,0,7.69-2.06,14.44-6.28,20.26-4.31,5.72-9.94,9.85-16.98,12l43.8,121.73,31.51-139.37c-6.47-2.16-12-5.81-16.6-11.07-4.69-5.44-6.94-12.66-6.94-21.95h0Z"/>
  </g>
</svg>