<?xml version="1.0" encoding="UTF-8"?>
<svg id="katman_2" data-name="katman 2" xmlns="http://www.w3.org/2000/svg" viewBox="0 0 317.47 452.99">
  <defs>
    <style>
      .cls-1 {
        fill-rule: evenodd;
      }
    </style>
  </defs>
  <g id="Layer_1" data-name="Layer 1">
    <path class="cls-1" d="M0,452.99v-11.26c0-10.5,1.22-19.88,3.38-27.95,2.35-8.16,5.91-15,10.79-20.63,4.88-5.62,11.25-9.94,19.04-12.75,7.78-2.91,17.26-4.41,28.14-4.41h2.25c-1.03-1.97-1.59-4.5-1.59-7.41,0-3.75,.66-7.32,2.06-10.79,1.41-3.38,3.28-6.47,5.91-9,2.63-2.63,6-4.79,10.13-6.38,4.13-1.69,9-2.53,14.72-2.53h1.78c5.44-9.57,9.66-18.95,12.94-28.33,3.19-9.38,5.63-18.47,7.5-27.29,1.78-8.81,2.91-17.44,3.56-25.98,.66-8.54,.84-16.79,.84-24.67v-16.13c-7.41-1.69-13.13-5.07-17.07-10.13-3.94-5.06-5.91-10.97-5.91-17.63,0-1.31,.1-2.62,.38-4.03,.19-1.5,.37-2.81,.84-4.03h-1.88c-14.54,0-25.42-3.66-32.73-10.97-7.22-7.22-10.78-16.41-10.78-27.39s3.84-19.41,11.72-26.45c7.88-7.13,18.85-11.07,32.83-11.91-3.19-4.97-5.63-10.6-7.6-17.16-1.78-6.38-2.72-13.22-2.72-20.45,0-10.04,1.78-19.04,5.25-27.38,3.56-8.16,8.35-15.19,14.54-21.2,6.1-5.81,13.22-10.5,21.67-13.78,8.25-3.28,17.25-4.97,26.63-4.97h4.22c9.47,0,18.38,1.69,26.73,4.97,8.35,3.28,15.57,7.97,21.66,13.78,6.1,6,10.88,13.04,14.44,21.2,3.56,8.35,5.35,17.35,5.35,27.38,0,7.22-1.03,14.07-2.81,20.45-1.88,6.56-4.31,12.19-7.41,17.16,13.79,.84,24.76,4.78,32.64,11.91,7.88,7.03,11.82,15.85,11.82,26.45s-3.66,20.17-10.88,27.39c-7.22,7.31-18.2,10.97-32.73,10.97h-1.78c.38,1.22,.66,2.53,.94,4.03,.09,1.41,.19,2.72,.19,4.03,0,6.66-1.88,12.57-5.82,17.63-3.94,5.06-9.75,8.44-17.16,10.13v16.13c0,7.88,.28,16.13,.85,24.67,.66,8.54,1.97,17.16,3.66,25.98,1.78,8.82,4.22,17.91,7.41,27.29,3.28,9.38,7.6,18.76,12.94,28.33h1.97c5.53,0,10.41,.84,14.54,2.53,4.13,1.59,7.6,3.75,10.13,6.38,2.63,2.53,4.59,5.62,5.91,9,1.41,3.47,2.06,7.03,2.06,10.79,0,2.91-.56,5.44-1.5,7.41h2.16c21.95,0,37.7,5.82,47.18,17.16,9.47,11.44,14.16,27.67,14.16,48.58v11.26H0Zm61.06-55.81c-13.51,0-22.98,3.1-28.42,9.29-5.25,6-8.26,14.35-8.72,24.76H293.55c-.47-10.41-3.38-18.76-8.72-24.76-5.44-6.19-14.91-9.29-28.42-9.29H61.06ZM110.01,67.34c0,7.6,1.5,14.73,4.31,21.2,2.91,6.66,7.03,12,12.1,16.41h64.62c5.16-4.41,9.19-9.75,12.1-16.41,2.91-6.47,4.41-13.6,4.41-21.2,0-7.13-1.22-13.51-3.47-19.41-2.35-5.81-5.44-10.79-9.57-15.1-4.03-4.22-8.91-7.5-14.72-9.75-5.82-2.35-12.19-3.56-18.95-3.56h-4.22c-6.75,0-13.13,1.22-18.85,3.56-5.91,2.25-10.79,5.53-14.82,9.75-4.03,4.31-7.22,9.29-9.56,15.1-2.25,5.91-3.38,12.29-3.38,19.41h0Zm-32.45,75.97c0,5.35,1.69,9.57,4.97,12.76,3.38,3.1,8.35,4.69,15,4.69h122.39c6.75,0,11.72-1.59,15-4.69,3.28-3.19,4.97-7.41,4.97-12.76s-1.69-9.66-4.97-12.66c-3.28-2.91-8.25-4.5-15-4.5H97.54c-6.66,0-11.63,1.59-15,4.5-3.28,3-4.97,7.22-4.97,12.66h0Zm65.83,90.04c0,19.79-1.97,38.83-5.62,57.21-3.75,18.38-9,34.89-15.66,49.33h73.25c-6.66-14.45-11.91-30.95-15.57-49.33-3.75-18.38-5.53-37.42-5.53-57.21v-15.29h-30.86v15.29Zm78.78,142.65c6.38,0,9.66-2.34,9.66-7.13,0-5.16-3.28-7.88-9.66-7.88H95.29c-6.38,0-9.57,2.72-9.57,7.88,0,4.78,3.19,7.13,9.57,7.13h126.89ZM122.11,189.35c0,5.06,3.38,7.6,10.04,7.6h53.27c6.66,0,9.94-2.53,9.94-7.6s-3.28-7.69-9.94-7.69h-53.27c-6.66,0-10.04,2.53-10.04,7.69h0Z"/>
  </g>
</svg>