<?xml version="1.0" encoding="UTF-8"?>
<svg id="katman_2" data-name="katman 2" xmlns="http://www.w3.org/2000/svg" viewBox="0 0 299.18 453.08">
  <defs>
    <style>
      .cls-1 {
        fill-rule: evenodd;
      }
    </style>
  </defs>
  <g id="Layer_1" data-name="Layer 1">
    <path class="cls-1" d="M172.57,352.35c5.72,5.53,12.29,9.94,19.51,13.13,7.32,3.28,15,5.82,23.07,7.69,8.07,1.78,16.23,3,24.57,3.56,8.25,.56,16.32,.75,23.82,.75h7.13c2.35,0,4.69-.09,6.85-.19l-12.57-11.63c-5.25-.84-11.91-1.41-20.17-1.78-8.25-.38-16.79-1.03-25.7-1.78-8.82-.84-17.35-2.06-25.61-3.56-8.25-1.59-14.91-3.94-19.88-7.13l-1.03,.94Zm-46.99-.94c-4.97,3.19-11.63,5.53-19.88,7.13-8.35,1.5-16.79,2.72-25.6,3.56-9,.75-17.44,1.41-25.7,1.78-8.25,.38-14.91,.94-20.25,1.78l-12.57,11.63c2.25,.09,4.6,.19,6.94,.19h7.13c7.6,0,15.57-.19,23.82-.75,8.35-.56,16.51-1.78,24.57-3.56,8.06-1.88,15.76-4.41,23.07-7.69,7.22-3.19,13.78-7.6,19.51-13.13l-1.03-.94Zm135.33,38.45c-1.97,5.91-4.6,10.79-7.69,14.73-3.09,3.94-6.19,7.31-9.38,9.94-3.66,3-7.41,5.53-11.16,7.6l14.44,14.82c11.63-5.25,20.26-11.91,26.17-20.07,5.91-7.97,9.75-17.26,11.63-27.67-6,.38-13.97,.66-24.01,.66h0Zm-222.65,0c-10.13,0-18.19-.28-24.01-.66,1.97,10.41,5.72,19.69,11.63,27.67,5.82,8.16,14.54,14.82,26.17,20.07l14.44-14.82c-5.06-2.44-10.32-6.38-15.66-11.63-5.35-5.16-9.57-12.1-12.57-20.63h0Zm178.01-73.9c-4.97-1.31-13.22-2.81-24.57-4.22-11.35-1.41-25.32-2.16-42.11-2.16s-30.76,.75-42.11,2.16c-11.35,1.41-19.6,2.91-24.57,4.22,0,1.22,1.78,2.44,5.44,3.85,3.66,1.5,8.54,2.72,14.72,3.84,6.19,1.22,13.22,2.35,21.2,3.19,8.06,.85,16.5,1.31,25.32,1.31s17.07-.47,25.23-1.31c7.97-.84,15.1-1.97,21.29-3.19,6.19-1.12,11.07-2.34,14.72-3.84,3.66-1.41,5.44-2.63,5.44-3.85h0Zm-66.68-20.63c4.78,0,9.84,.19,15.29,.38,5.44,.28,11.07,.56,16.6,1.03,5.62,.28,11.16,.85,16.6,1.5,5.34,.56,10.31,1.41,14.91,2.34l-9.29-37.7H95.47l-9.28,37.7c4.41-.94,9.38-1.78,14.82-2.34,5.44-.66,11.07-1.22,16.6-1.5,5.62-.47,11.25-.75,16.69-1.03,5.44-.19,10.5-.38,15.29-.38h0Zm55.99-48.58c4.97-5.44,9.28-10.88,12.85-16.6,3.66-5.53,6.66-11.44,9.1-17.63,2.53-6.19,4.31-12.75,5.53-19.6,1.13-6.94,1.78-14.26,1.78-22.23,0-10.13-1.31-19.98-3.94-29.45-2.63-9.47-6.94-18.76-12.94-28.04-6-9.1-13.88-18.19-23.63-27.29-9.75-9-21.85-18.01-36.2-27.1,3.19-2.44,6-5.25,8.35-8.35,2.34-3.09,3.56-7.6,3.56-13.41s-1.87-10.88-5.72-15.1c-3.75-4.22-8.72-6.28-14.72-6.28s-10.97,2.06-14.72,6.28c-3.75,4.22-5.72,9.29-5.72,15.1s1.22,10.32,3.56,13.41c2.35,3.1,5.16,5.91,8.35,8.35-14.44,9.1-26.45,18.1-36.2,27.1-9.75,9.1-17.63,18.19-23.63,27.29-6,9.29-10.32,18.57-12.94,28.04-2.62,9.47-3.94,19.32-3.94,29.45,0,7.97,.66,15.29,1.78,22.23,1.22,6.85,3,13.41,5.53,19.6,2.44,6.19,5.44,12.1,9,17.63,3.66,5.72,7.97,11.16,12.94,16.6h111.98ZM112.26,37.04c0-5.25,1.03-10.13,2.91-14.63,1.87-4.5,4.5-8.35,7.88-11.72,3.28-3.28,7.13-6,11.72-7.88,4.5-1.88,9.47-2.81,14.82-2.81s10.32,.94,14.82,2.81c4.5,1.88,8.44,4.6,11.72,7.88,3.38,3.38,5.91,7.22,7.88,11.72,1.87,4.5,2.81,9.38,2.81,14.63,0,6.85-1.78,12.85-5.34,18.19,10.13,7.31,19.51,15.01,28.32,23.16,8.72,7.97,16.41,16.79,22.88,26.07,6.47,9.29,11.54,19.51,15.29,30.48,3.75,10.97,5.62,22.98,5.62,36.01,0,10.22-1.12,19.79-3.19,28.61-2.16,8.82-4.88,16.79-8.16,24.2-3.38,7.41-7.13,14.07-11.35,19.98-4.13,5.91-8.35,11.25-12.47,16.04l17.54,63.12c-7.5,4.97-16.69,8.91-27.2,11.91-10.6,3-21.95,5.06-33.95,6.38,6.66,2.81,13.79,4.88,21.48,6.19,7.6,1.31,15.57,2.16,23.82,2.81,8.25,.66,16.6,1.22,25.04,1.69,8.53,.47,16.79,1.12,24.76,2.16l29.26,27.57c-.47,8.35-2.16,16.22-4.97,23.54-2.91,7.41-6.66,14.16-11.35,20.35-4.79,6.19-10.41,11.54-16.79,16.32-6.47,4.59-13.41,8.35-21.01,11.25l-31.89-33.95c2.91-1.31,6.1-2.81,9.66-4.6,3.56-1.69,6.94-3.75,10.32-6.1,3.28-2.44,6.28-5.25,8.91-8.35,2.63-3.19,4.41-6.85,5.35-10.88-11.44-.66-21.67-1.78-30.67-3.38-9-1.59-17.35-4.13-25.13-7.5-7.78-3.38-14.91-7.97-21.57-13.6-6.66-5.72-13.31-13.13-19.97-22.41h-.94c-6.66,9.28-13.32,16.69-19.98,22.41-6.66,5.63-13.88,10.22-21.66,13.6-7.69,3.38-16.13,5.91-25.04,7.5-9,1.59-19.23,2.72-30.67,3.38,.94,4.03,2.72,7.69,5.34,10.88,2.63,3.1,5.63,5.91,8.91,8.35,3.28,2.34,6.75,4.41,10.32,6.1,3.56,1.78,6.75,3.28,9.66,4.6l-31.88,33.95c-7.51-2.91-14.63-6.66-21.01-11.25-6.38-4.78-12.01-10.13-16.79-16.32-4.69-6.19-8.44-12.94-11.35-20.35-2.81-7.31-4.5-15.19-4.97-23.54l29.26-27.57c7.97-1.03,16.23-1.69,24.76-2.16,8.44-.47,16.79-1.03,25.04-1.69,8.16-.66,16.22-1.5,23.82-2.81,7.69-1.31,14.82-3.38,21.57-6.19-12.1-1.31-23.45-3.38-33.95-6.38-10.6-3-19.79-6.94-27.29-11.91l17.44-63.12c-4.03-4.78-8.25-10.13-12.38-16.04-4.22-5.91-7.97-12.57-11.35-19.98-3.28-7.41-6-15.38-8.16-24.2-2.16-8.82-3.19-18.38-3.19-28.61,0-13.04,1.87-25.04,5.63-36.01,3.75-10.97,8.81-21.2,15.29-30.48,6.47-9.28,14.16-18.1,22.88-26.07,8.81-8.16,18.19-15.85,28.32-23.16-3.56-5.35-5.44-11.35-5.44-18.19h0Zm84.31,85.91v15.48h-38.92v91.44h-16.13v-91.44h-38.92v-15.48h38.92v-41.27h16.13v41.27h38.92Z"/>
  </g>
</svg>