<?xml version="1.0" encoding="UTF-8"?>
<svg id="katman_2" data-name="katman 2" xmlns="http://www.w3.org/2000/svg" viewBox="0 0 390.52 453.08">
  <defs>
    <style>
      .cls-1 {
        fill-rule: evenodd;
      }
    </style>
  </defs>
  <g id="Layer_1" data-name="Layer 1">
    <path class="cls-1" d="M175.1,166.84c0,11.25,.75,21.57,2.34,31.04,1.59,9.57,3.38,19.23,5.35,29.35,2.06,10.04,4.13,20.82,6.47,32.45,2.16,11.63,4.03,25.13,5.44,40.42h1.13c1.31-15.29,3.09-28.79,5.35-40.42,2.34-11.63,4.5-22.42,6.57-32.45,1.97-10.13,3.75-19.79,5.35-29.35,1.59-9.47,2.34-19.79,2.34-31.04,0-5.81-.28-12-.66-18.76-.47-6.66-1.5-13.69-2.91-20.82-1.5-7.22-3.47-14.54-6.1-22.04-2.53-7.41-6.1-14.91-10.5-22.23-4.41,7.32-7.97,14.82-10.69,22.23-2.63,7.5-4.69,14.82-6,22.04-1.41,7.13-2.34,14.16-2.81,20.82-.37,6.75-.66,12.94-.66,18.76h0Zm166.47,225.84v-24.01H48.96v24.01H341.57Zm0,15H48.96v27.29H341.57v-27.29ZM48.96,353.48H341.57v-32.45c-22.98-1.22-47.27-2.16-72.59-2.81-25.41-.66-50.27-1.03-74.84-1.03s-48.77,.38-73.81,1.03c-25.14,.66-48.96,1.59-71.37,2.81v32.45ZM369.52,187.48c0-7.69-1.12-15.1-3.47-22.04-2.25-7.03-5.82-13.13-10.41-18.29-4.59-5.16-10.32-9.19-17.07-12.38-6.94-3-14.72-4.5-23.54-4.5-10.88,0-20.82,2.44-29.73,7.5-8.91,4.97-16.98,11.72-23.92,19.98-7.03,8.44-13.13,18.1-18.47,29.26-5.16,11.07-9.57,22.7-13.22,34.98-3.56,12.19-6.47,24.76-8.53,37.61-2.06,12.75-3.47,25.04-4.13,36.67,4.5,1.22,9.57,2.25,15.19,2.91,5.63,.56,11.91,.94,18.94,.94,14.73,0,29.17-2.62,43.42-7.97,14.16-5.16,26.82-12.66,37.89-22.41,10.97-9.85,19.98-21.67,26.73-35.45,6.94-13.88,10.32-29.45,10.32-46.8h0Zm-348.51,0c0,17.35,3.38,32.92,10.32,46.8,6.75,13.79,15.76,25.6,26.73,35.45,11.07,9.75,23.73,17.26,37.89,22.41,14.25,5.35,28.7,7.97,43.42,7.97,7.03,0,13.32-.37,18.94-.94,5.63-.66,10.69-1.69,15.1-2.91-.75-11.63-2.16-23.92-4.13-36.67-2.06-12.85-4.88-25.42-8.44-37.61-3.66-12.29-8.07-23.91-13.22-34.98-5.35-11.16-11.44-20.82-18.47-29.26-6.94-8.25-15.01-15.01-23.92-19.98-8.91-5.06-18.85-7.5-29.73-7.5-8.82,0-16.69,1.5-23.54,4.5-6.85,3.19-12.47,7.22-17.07,12.38-4.69,5.16-8.16,11.25-10.41,18.29-2.25,6.94-3.47,14.35-3.47,22.04h0ZM186.63,0h17.26V16.32h15.75v15.76h-15.75v28.51c9.28,13.79,16.97,28.98,22.6,45.67,5.82,16.6,8.63,34.79,8.63,54.68,3.85-6.57,8.44-12.94,13.79-18.76,5.35-5.91,11.35-11.16,18.01-15.66,6.56-4.41,13.88-8.07,21.76-10.6,7.97-2.63,16.51-3.85,25.51-3.85,11.07,0,21.29,1.88,30.58,5.63,9.29,3.85,17.44,9.1,24.2,15.85,6.85,6.85,12.1,14.91,15.85,24.2,3.75,9.38,5.72,19.6,5.72,30.85,0,12.38-1.88,24.38-5.53,36.01-3.66,11.63-8.72,22.32-15.19,32.17-6.47,9.94-14.25,18.66-23.26,26.45-9,7.69-18.85,13.97-29.36,18.48,3,.19,6.38,.47,10.22,.75,3.84,.28,7.88,.56,11.82,.84,3.94,.19,7.88,.47,11.72,.75,3.85,.28,7.41,.56,10.6,.75v148.27H28.98v-148.27c3.19-.19,6.75-.47,10.6-.75,3.85-.28,7.78-.56,11.72-.75,3.94-.28,7.79-.56,11.63-.84,3.75-.28,7.22-.56,10.32-.75-10.41-4.5-20.26-10.79-29.36-18.48-8.91-7.78-16.69-16.51-23.16-26.45-6.47-9.85-11.54-20.54-15.19-32.17-3.75-11.63-5.53-23.63-5.53-36.01,0-11.25,1.88-21.48,5.72-30.85,3.75-9.29,9-17.35,15.85-24.2,6.75-6.75,14.91-12,24.29-15.85,9.19-3.75,19.41-5.63,30.48-5.63,9,0,17.54,1.22,25.42,3.85,7.97,2.53,15.19,6.19,21.85,10.6,6.66,4.5,12.66,9.75,18.01,15.66,5.35,5.81,9.94,12.19,13.79,18.76,0-19.88,2.81-38.08,8.63-54.68,5.72-16.69,13.32-31.89,22.6-45.67v-28.51h-15.76v-15.76h15.76V0Z"/>
  </g>
</svg>