<?xml version="1.0" encoding="UTF-8"?>
<svg id="katman_2" data-name="katman 2" xmlns="http://www.w3.org/2000/svg" viewBox="0 0 395.59 453.08">
  <defs>
    <style>
      .cls-1 {
        fill-rule: evenodd;
      }
    </style>
  </defs>
  <g id="Layer_1" data-name="Layer 1">
    <path class="cls-1" d="M109.73,141.52h176.22l17.16-24.1H91.72l18.01,24.1Zm-18.38,195.82h211.39l-16.79-24.29H109.73l-18.38,24.29Zm238.59,46.8v-24.95H64.9v24.95H329.94Zm43.51,46.8v-24.38H22.79v24.38H373.45Zm-43.51-334.63V20.82h-25.98V56.83h-79.62V20.82h-53.65V56.83H90.69V20.82h-25.79V96.32H329.94Zm-55.62,194.61v-127.36H121.64v127.36h152.68Zm8.44-255.85V0h69.87V117.42h-24.01l-32.55,46.14v127.36l32.55,46.42h24.01v46.8h42.96v68.93H0v-68.93H43.05v-46.8h22.7l33.85-46.42v-127.36l-33.57-46.14h-22.98V0H111.51V35.08h37.98V0h95.76V35.08h37.52Z"/>
  </g>
</svg>