<?xml version="1.0" encoding="UTF-8"?>
<svg id="katman_2" data-name="katman 2" xmlns="http://www.w3.org/2000/svg" viewBox="0 0 375.99 452.99">
  <defs>
    <style>
      .cls-1 {
        fill-rule: evenodd;
      }
    </style>
  </defs>
  <g id="Layer_1" data-name="Layer 1">
    <path class="cls-1" d="M263.07,135.33c14.44,15.85,27.29,34.14,38.55,54.96,4.78,8.82,9.57,18.76,14.16,29.54,4.69,10.69,8.91,22.32,12.66,34.89,3.66,12.47,6.47,25.98,8.72,40.33,2.16,14.35,3.28,29.45,3.28,45.3,0,11.26-.56,22.7-1.69,34.61-1.22,11.82-3.28,23.91-6,36.48h-34.42c2.81-9.66,5.16-19.04,7.03-28.04,1.97-9,3.47-17.73,4.59-26.36,1.22-8.72,2.06-17.35,2.53-25.88,.56-8.63,.84-17.44,.84-26.54,0-30.11-4.13-58.8-12.57-86.19-8.44-27.38-20.91-55.05-37.7-83.09h0ZM63.02,215.99l.28,1.69c-4.88,2.72-9.66,6.1-14.26,10.04-4.6,3.85-9.38,6.66-14.35,8.53-1.5-1.41-3.1-3.28-4.5-5.72-1.31-2.34-2.25-4.97-2.63-7.78l35.45-6.75ZM163.75,58.62c-2.06-4.03-4.31-7.97-6.94-11.82-2.53-3.94-6.1-7.6-10.69-10.97l-.94,.37c1.22,3.94,2.06,7.97,2.44,12.19,.37,4.22,.66,8.91,.84,14.07l15.29-3.85Zm45.68,114.32c2.25,6.57,3.94,13.22,5.16,20.07,1.31,6.94,1.97,13.97,1.97,21.1,0,13.79-2.81,25.89-8.35,36.39-5.53,10.6-12.57,20.44-20.91,29.54-8.35,9.19-17.44,18.01-27.1,26.54-9.85,8.44-18.85,17.26-27.2,26.45-8.44,9.29-15.29,19.32-20.91,30.11-5.63,10.69-8.35,22.98-8.35,36.95,0,7.04,.37,13.04,1.22,18.29,.66,5.16,1.59,9.75,2.63,13.79h238.59c1.22-7.88,2.25-15.29,3.28-22.51,1.03-7.13,1.88-14.63,2.63-22.41,.84-7.69,1.41-16.04,1.88-24.85,.37-8.82,.56-18.95,.56-30.01,0-14.54-1.41-29.92-4.41-45.96-2.81-16.13-7.13-32.36-12.94-48.77-5.82-16.32-12.94-32.26-21.48-48.02-8.53-15.76-18.48-30.39-29.54-43.89-4.78-5.82-9.19-11.07-13.22-15.76-4.13-4.69-8.16-9.19-12.38-13.6-4.03-4.5-8.35-9.28-12.94-14.26-4.59-4.88-9.66-10.6-15.19-17.07-2.44-11.53-6.38-22.51-12-33.11-5.53-10.5-11.44-19.04-17.54-25.7h-1.78c-.66,6.47-1.31,13.22-1.97,20.54-.75,7.22-1.88,13.79-3.47,19.88-3.94,1.03-8.82,2.16-14.44,3-5.72,.94-11.63,2.06-17.82,3.38-6.19,1.22-12.29,2.81-18.48,4.6-6.1,1.78-11.72,4.03-16.51,6.85-4.88,2.81-8.91,6.28-12.1,10.41-3,4.03-4.5,8.91-4.5,14.72,0,1.31,.09,2.72,.28,4.31,.19,1.5,.47,2.91,.94,4.31-15.66,13.69-29.54,27.85-41.83,42.58-12.29,14.63-23.17,27.95-32.36,40.14-2.25,1.78-4.78,3.66-7.13,5.53-2.44,1.88-4.5,3.84-6.56,5.72-1.97,2.06-3.56,4.13-4.88,6.19-1.41,2.06-1.97,4.13-1.97,6.19,0,2.72,.47,5.53,1.5,8.35,.94,2.72,2.16,5.16,3.56,7.41,3,11.16,7.22,18.85,12.66,23.26,5.53,4.41,11.72,6.66,18.66,6.66,4.78,0,9.66-1.69,14.63-4.97,5.06-3.28,9.85-8.44,14.44-15.29,4.13-1.69,8.07-3.19,11.63-4.5,3.56-1.41,7.03-2.91,10.22-4.41,3.28-1.5,6.56-3.28,9.94-5.44,3.28-1.97,6.85-4.5,10.6-7.5,8.35,0,16.69-1.41,25.14-4.41,8.44-2.81,16.13-6.66,22.88-11.63,6.75-4.88,12.29-10.69,16.6-17.35,4.22-6.85,6.38-14.07,6.38-21.85h12.29ZM89,452.99c-2.16-5.54-4.13-12.19-5.91-20.07-1.78-7.69-2.72-17.73-2.72-30.01,0-15.2,2.81-28.89,8.35-40.99,5.63-12.19,12.57-23.26,21.01-33.2,8.35-10.13,17.44-19.5,27.29-28.14,9.75-8.72,18.95-17.16,27.29-25.41,8.35-8.25,15.29-16.51,20.91-24.95,5.53-8.35,8.35-17.35,8.35-27.1-6.19,6.1-14.16,11.44-24.01,15.94-9.94,4.5-22.88,7.03-38.92,7.88-6.1,4.41-12.19,8.07-18.29,11.07-6.19,3-12.75,5.54-19.69,7.78-6.19,6.94-12.57,12.57-19.23,16.79-6.75,4.31-13.6,6.47-20.54,6.47-5.72,0-11.07-1.03-16.04-3.28-4.97-2.15-9.57-5.16-13.69-9-4.03-3.75-7.5-8.16-10.41-13.13-2.81-4.97-4.97-10.12-6.38-15.75-2.44-3.56-4.13-7.6-4.88-11.82-.94-4.31-1.5-8.34-1.5-12.38,0-3.28,1.03-6.47,3.1-9.94,1.97-3.56,4.41-6.85,7.13-10.13,2.72-3.19,5.72-5.91,8.63-8.35,3-2.34,5.63-4.22,7.78-5.35,6.75-8.91,12.85-16.69,18.01-23.26,5.35-6.57,10.5-12.66,15.66-18.38,4.97-5.72,10.22-11.35,15.75-16.88,5.53-5.53,12.01-11.82,19.6-18.76-.47-1.69-.66-3.1-.66-4.5,0-6.19,1.31-11.63,3.94-16.41,2.53-4.78,5.81-9,9.66-12.47,3.84-3.47,8.16-6.28,12.85-8.44,4.69-2.25,9.19-3.84,13.32-5.06,0-4.22-.09-8.16-.28-11.82-.19-3.66-.66-7.41-1.13-10.97-.37-3.56-1.03-7.31-1.78-11.25-.66-4.03-1.5-8.63-2.53-13.79l9-3.84c2.91,1.41,6.28,3.38,10.04,5.81,3.94,2.53,7.69,5.35,11.53,8.82,3.94,3.38,7.69,7.22,11.26,11.63,3.56,4.41,6.84,9.1,9.57,14.07l3-.56c1.59-7.69,2.81-15.66,3.75-24.01,.84-8.35,1.59-17.54,2.25-27.39l12.19-2.44c4.41,3.94,8.72,8.53,13.22,13.6,4.5,5.16,8.82,10.79,12.85,16.88,4.13,6.19,7.97,13.04,11.54,20.45,3.56,7.41,6.57,15.47,9,24.1,3.09,3.94,6.56,7.97,10.22,12.19,3.75,4.22,7.78,8.63,12.19,13.41,4.31,4.88,9,9.94,14.16,15.57,5.06,5.53,10.6,11.82,16.51,18.85,8.07,9.28,16.41,21.29,25.23,35.92,8.91,14.63,16.97,30.67,24.2,48.3,7.22,17.63,13.32,36.11,18.01,55.52,4.78,19.22,7.22,38.17,7.22,56.65,0,12.1-.19,22.79-.56,32.07-.37,9.29-1.03,18.38-1.97,27.2-.84,8.91-1.97,18.19-3.47,27.95-1.31,9.75-3,21.2-5.06,34.33H89ZM128.77,126.05c-1.03-2.63-1.5-4.78-1.5-6.66,0-2.53,.66-4.69,2.16-6.19,1.41-1.59,3-2.81,5.06-3.56,1.97-.84,4.13-1.31,6.47-1.5,2.44-.19,4.5-.28,6.38-.28,4.6,0,9.28,.28,14.16,.94,4.88,.75,9.1,1.12,12.66,1.12-2.63,2.81-5.72,5.16-9.38,7.13-3.66,1.97-7.69,3.75-11.82,5.16-4.22,1.31-8.44,2.35-12.57,2.91-4.22,.66-8.06,.94-11.63,.94h0Z"/>
  </g>
</svg>